Coordinates
version=1
nRows=22
nColumns=24
inDegrees=yes

Units are S.I. units (second, meters, Newtons, ...)
Angles are in degrees.

endheader
time	pelvis_tilt	pelvis_list	pelvis_rotation	pelvis_tx	pelvis_ty	pelvis_tz	hip_flexion_r	hip_adduction_r	hip_rotation_r	knee_angle_r	ankle_angle_r	subtalar_angle_r	mtp_angle_r	hip_flexion_l	hip_adduction_l	hip_rotation_l	knee_angle_l	ankle_angle_l	subtalar_angle_l	mtp_angle_l	lumbar_extension	lumbar_bending	lumbar_rotation
      2.18000000	     -6.07782883	     -1.75334648	      1.79128839	      0.43556209	      1.22759178	     -0.83148817	      1.93734040	      6.92497903	     -2.71218893	    -38.00500950	     -0.98258686	      5.80560856	     28.23403060	     29.24165665	      7.72131817	      9.62233253	    -20.44318181	     -7.82096968	     -5.81174514	      9.52882014	     -5.42730186	      0.87041842	      3.85147588
      2.18500000	     -5.98843191	     -1.43641866	      1.97856608	      0.44190371	      1.22805769	     -0.83212007	      2.72099037	      6.23541702	     -3.56320037	    -39.88790702	     -2.57319188	      5.95476288	     28.73116593	     28.76842624	      8.20640811	      9.81117095	    -20.69276690	     -7.77984252	     -5.98888797	      9.50798512	     -5.40366843	      0.47025378	      3.74707622
      2.19000000	     -5.90969176	     -1.11611121	      2.16934502	      0.44819146	      1.22851763	     -0.83275443	      3.53530460	      5.52975158	     -4.35405780	    -41.74168321	     -4.19295800	      5.97945625	     29.00623659	     28.26887588	      8.69377334	     10.01614299	    -20.87555161	     -7.69190638	     -6.16030017	      9.49986852	     -5.37873633	      0.06785281	      3.63936417
      2.19500000	     -5.86559897	     -0.79925509	      2.36088287	      0.45445004	      1.22894097	     -0.83339249	      4.40301273	      4.82320100	     -5.07481078	    -43.56310958	     -5.78715831	      5.87006915	     28.98042552	     27.77556116	      9.17960322	     10.24255052	    -21.00572614	     -7.57496779	     -6.38856204	      9.49085632	     -5.31460057	     -0.32524457	      3.54097881
      2.20000000	     -5.84102819	     -0.49248958	      2.55510041	      0.46064587	      1.22935567	     -0.83402082	      5.30260120	      4.13240836	     -5.71982512	    -45.33458027	     -7.33062718	      5.60285340	     28.67204851	     27.28173591	      9.65071345	     10.47417929	    -21.09511820	     -7.41787948	     -6.57693023	      9.49008282	     -5.24211537	     -0.70635096	      3.42875429
      2.20500000	     -5.83410224	     -0.19614397	      2.74059553	      0.46678821	      1.22975955	     -0.83462034	      6.22921991	      3.46691275	     -6.27469399	    -47.05330689	     -8.77651797	      5.19598804	     27.99157926	     26.78328045	     10.10077067	     10.70287847	    -21.13906459	     -7.22461312	     -6.76841825	      9.48696255	     -5.15600986	     -1.07790192	      3.32726413
      2.21000000	     -5.78923279	      0.09861363	      2.91551274	      0.47287481	      1.23023005	     -0.83519106	      7.10362780	      2.81959647	     -6.74011082	    -48.69315188	    -10.11118753	      4.87223391	     26.66070549	     26.19487619	     10.52641036	     10.92399981	    -21.09266679	     -7.00173318	     -6.87430885	      9.51147261	     -5.11999644	     -1.44301935	      3.23709089
      2.21500000	     -5.82418196	      0.34744230	      3.09905382	      0.47887171	      1.23060082	     -0.83575463	      8.08976293	      2.24360585	     -7.14595954	    -50.27190403	    -11.13574465	      4.12965131	     26.00582350	     25.73714504	     10.91230162	     11.13232515	    -21.11428089	     -6.70553604	     -6.95600941	      9.52344166	     -5.01179712	     -1.76094000	      3.12188105
      2.22000000	     -5.81253438	      0.58888954	      3.26595021	      0.48482478	      1.23107422	     -0.83628285	      9.00736979	      1.70162582	     -7.46795840	    -51.75865401	    -12.09789769	      3.56201255	     24.34887968	     25.16757010	     11.26165346	     11.34332696	    -21.02299235	     -6.40480754	     -6.95089949	      9.52350293	     -4.96004890	     -2.06644177	      3.01865024
      2.22500000	     -5.83245178	      0.79351537	      3.43411152	      0.49068954	      1.23151023	     -0.83680102	      9.96488233	      1.22647235	     -7.72916541	    -53.15401213	    -12.75287379	      2.76758866	     23.10124338	     24.65948974	     11.57028496	     11.53294315	    -20.96787401	     -6.06299497	     -6.91790026	      9.53166171	     -4.88999083	     -2.32974763	      2.90631110
      2.23000000	     -5.85840809	      0.96764982	      3.59223587	      0.49648087	      1.23196389	     -0.83729219	     10.92988473	      0.81304116	     -7.93084984	    -54.45354440	    -13.19038049	      1.89698581	     21.85503895	     24.15512717	     11.83340702	     11.70834698	    -20.89709222	     -5.69716236	     -6.84409744	      9.54238861	     -4.82107595	     -2.55746776	      2.79214738
      2.23500000	     -5.88538833	      1.10756719	      3.74436485	      0.50217823	      1.23242039	     -0.83777818	     11.89640194	      0.45866559	     -8.09048120	    -55.65202546	    -13.43160338	      0.96739617	     20.66986239	     23.66248248	     12.05308405	     11.87849894	    -20.83195103	     -5.30079569	     -6.73150707	      9.55647078	     -4.76580187	     -2.74413719	      2.70231812
      2.24000000	     -5.91539222	      1.22109349	      3.87962546	      0.50780927	      1.23290417	     -0.83821392	     12.86170821	      0.17117849	     -8.18209356	    -56.73903042	    -13.47227485	      0.01496267	     19.47784928	     23.17543335	     12.22527296	     12.00575263	    -20.75651224	     -4.89294540	     -6.56804680	      9.56472941	     -4.72700133	     -2.89588502	      2.55264216
      2.24500000	     -5.98153246	      1.29637021	      4.00066955	      0.51335986	      1.23336255	     -0.83864319	     13.87470955	     -0.05388214	     -8.23216354	    -57.71744626	    -13.36402968	     -1.02474181	     18.66264365	     22.75659375	     12.35619718	     12.11286327	    -20.71695740	     -4.49760480	     -6.46566762	      9.58826731	     -4.65790644	     -3.00279744	      2.41797680
      2.25000000	     -6.03094374	      1.35271860	      4.11603366	      0.51884179	      1.23385572	     -0.83902323	     14.85629321	     -0.22834888	     -8.24590303	    -58.57801155	    -13.11523120	     -2.02234699	     17.67820757	     22.31305246	     12.44777692	     12.19889086	    -20.64952346	     -4.08290450	     -6.25091135	      9.61744105	     -4.62294426	     -3.08952128	      2.25955709
      2.25500000	     -6.03183007	      1.37920738	      4.22417287	      0.52425632	      1.23440821	     -0.83939252	     15.76003996	     -0.34817983	     -8.24114221	    -59.30680842	    -12.69391976	     -2.84102390	     16.45320779	     21.81860387	     12.49455993	     12.27768570	    -20.58098660	     -3.59189579	     -5.91127145	      9.59332912	     -4.64791732	     -3.13425145	      2.13566823
      2.26000000	     -6.10916096	      1.39250666	      4.31720090	      0.52960373	      1.23487045	     -0.83974256	     16.76875102	     -0.44146591	     -8.19747883	    -59.94706349	    -12.19313387	     -3.75613188	     15.83236892	     21.43401439	     12.53308209	     12.34229825	    -20.53685557	     -3.19659356	     -5.74811356	      9.61431019	     -4.60716641	     -3.16228107	      1.96677140
      2.26500000	     -6.12504821	      1.37654300	      4.39453083	      0.53490855	      1.23540840	     -0.84003943	     17.67593267	     -0.46685253	     -8.12876795	    -60.44280656	    -11.57947732	     -4.51767521	     14.82882990	     20.99211714	     12.51710102	     12.35921299	    -20.50841935	     -2.68669351	     -5.36736997	      9.58103964	     -4.63566850	     -3.15512277	      1.82767079
      2.27000000	     -6.17803607	      1.34235498	      4.46204852	      0.54015330	      1.23589359	     -0.84032225	     18.62446719	     -0.45689506	     -8.03178825	    -60.83086208	    -10.87669076	     -5.25933503	     14.14745822	     20.60580302	     12.48348591	     12.37343823	    -20.48815778	     -2.23180869	     -5.08716353	      9.56804718	     -4.63760118	     -3.12248109	      1.66732859
      2.27500000	     -6.20329195	      1.31134778	      4.53295539	      0.54538391	      1.23640848	     -0.84064025	     19.51133273	     -0.46094011	     -7.95353429	    -61.08569152	     -9.99251897	     -5.85422409	     13.88230263	     20.15203392	     12.45795682	     12.44747518	    -20.39547208	     -1.90486079	     -5.02233160	      9.60209149	     -4.67238707	     -3.07992043	      1.49942030
      2.28000000	     -6.34523840	      1.25385754	      4.56331282	      0.55052426	      1.23674409	     -0.84080447	     20.56457609	     -0.37332338	     -7.77248101	    -61.29154218	     -9.24865497	     -6.48757130	     13.17764143	     19.93342205	     12.38567385	     12.36005443	    -20.46877393	     -1.40387911	     -4.61961466	      9.65000185	     -4.60267128	     -3.02900440	      1.30882358
      2.28500000	     -6.38651348	      1.18629583	      4.59398529	      0.55568090	      1.23720079	     -0.84097814	     21.44390863	     -0.26851576	     -7.61332365	    -61.32543866	     -8.34537816	     -6.91082086	     12.54251043	     19.56119970	     12.28994280	     12.29685109	    -20.47269330	     -0.89457666	     -4.23520493	      9.60281315	     -4.63319786	     -2.95284018	      1.14438026
